#!OML:ASF F:\VICON\USERDATA\INSTALL\rory3\rory3.ASF
:FULLY-SPECIFIED
:DEGREES
3430
root 9.05481 17.6956 2.66606 16.8766 -20.2266 9.96947
lowerback 16.987 2.59613 1.64223
upperback 6.99166 3.84093 8.6611
thorax -2.51914 1.77382 7.61174
lowerneck -8.11338 -14.3982 -10.8984
upperneck 24.125 -21.9253 13.8357
head 12.0946 -9.48555 3.63767
rclavicle -4.45278e-014 6.36111e-015
rhumerus -4.12621 25.4384 -90.976
rradius 43.4539
rwrist -45.8216
rhand -36.1328 -20.8859
rfingers 7.12502
rthumb -9.23797 -50.6635
lclavicle -4.45278e-014 6.36111e-015
lhumerus -20.1193 -35.9647 97.285
lradius 54.0369
lwrist 16.8456
lhand -11.1106 49.0293
lfingers 7.12502
lthumb 14.9139 -1721.53
rfemur -49.4612 -3.18912 10.0292
rtibia 33.8525
rfoot -10.3925 -20.1352
rtoes 20.6922
lfemur -15.3273 -6.44372 -26.4957
ltibia 22.7561
lfoot -11.7684 -16.5791
ltoes -16.621
3431
root 9.01259 17.7024 2.70239 17.2117 -20.2387 9.93368
lowerback 16.8552 2.55469 1.49704
upperback 6.89385 3.76737 8.64454
thorax -2.55345 1.73902 7.6942
lowerneck -8.15585 -14.3161 -11.0422
upperneck 24.3035 -21.8245 13.8673
head 12.1815 -9.44055 3.68712
rclavicle 1.90833e-014 -1.24042e-013
rhumerus -3.22663 24.9139 -89.8384
rradius 43.6922
rwrist -46.31
rhand -36.4824 -21.665
rfingers 7.12502
rthumb -9.57531 -51.4274
lclavicle 1.90833e-014 -1.24042e-013
lhumerus -18.9707 -36.4269 97.3317
lradius 53.9144
lwrist 16.4903
lhand -11.0594 48.7483
lfingers 7.12502
lthumb 14.9633 -1721.81
rfemur -49.6725 -3.1683 10.18
rtibia 33.9118
rfoot -10.5835 -20.1176
rtoes 20.7128
lfemur -15.4142 -6.35634 -26.3322
ltibia 22.491
lfoot -11.4442 -16.7281
ltoes -16.1164
3432
root 8.97348 17.7055 2.74132 17.0121 -20.3195 10.5036
lowerback 16.9949 2.5119 0.898696
upperback 6.89875 3.62371 8.43914
thorax -2.62712 1.66577 7.84143
lowerneck -8.20471 -14.2286 -11.0426
upperneck 24.403 -21.7048 13.8363
head 12.2078 -9.38544 3.69693
rclavicle -7.95139e-014 -3.49861e-014
rhumerus -2.22648 24.0352 -88.7611
rradius 43.9108
rwrist -46.7395
rhand -36.6032 -22.3306
rfingers 7.12502
rthumb -9.69177 -52.0876
lclavicle -7.95139e-014 -3.49861e-014
lhumerus -17.6108 -37.0779 97.1673
lradius 54.0235
lwrist 17.3338
lhand -10.8351 49.0352
lfingers 7.12502
lthumb 15.1794 -1721.54
rfemur -49.5463 -3.41218 9.7924
rtibia 33.9567
rfoot -10.6456 -19.9713
rtoes 20.4758
lfemur -15.0902 -6.30831 -26.8482
ltibia 22.194
lfoot -11.003 -16.9312
ltoes -15.3302
3433
root 8.93556 17.7132 2.77851 17.0332 -20.3422 10.7191
lowerback 17.0197 2.4024 0.646768
upperback 6.90796 3.43821 8.28593
thorax -2.61087 1.57282 7.85611
lowerneck -8.21134 -14.0901 -10.993
upperneck 24.3882 -21.5025 13.8099
head 12.1617 -9.29844 3.71964
rclavicle 9.54166e-015 3.18055e-015
rhumerus -1.15449 22.9947 -87.7769
rradius 43.972
rwrist -46.6782
rhand -36.4802 -22.2728
rfingers 7.12502
rthumb -9.57312 -52.0353
lclavicle 9.54166e-015 3.18055e-015
lhumerus -16.1522 -37.8235 96.8737
lradius 54.0503
lwrist 17.77
lhand -10.8542 49.1823
lfingers 7.12502
lthumb 15.1609 -1721.39
rfemur -49.5374 -3.58367 9.75387
rtibia 34.0569
rfoot -10.8193 -19.8065
rtoes 20.4791
lfemur -14.8181 -6.21139 -26.9998
ltibia 21.7346
lfoot -10.5631 -17.0828
ltoes -14.8799
3434
root 8.90063 17.7275 2.82025 17.3087 -20.2734 10.5894
lowerback 16.8863 2.2451 0.745461
upperback 6.88646 3.24149 8.24051
thorax -2.52928 1.47619 7.78996
lowerneck -8.19127 -13.9387 -11.0866
upperneck 24.316 -21.2861 13.9065
head 12.1213 -9.20933 3.81087
rclavicle 2.22639e-014 -1.90833e-014
rhumerus -0.0428988 21.944 -86.7825
rradius 43.9824
rwrist -46.513
rhand -36.4708 -23.0177
rfingers 7.12502
rthumb -9.56407 -52.7807
lclavicle 2.22639e-014 -1.90833e-014
lhumerus -14.6645 -38.4764 96.6631
lradius 53.9568
lwrist 17.4076
lhand -11.1362 49.1015
lfingers 7.12502
lthumb 14.8893 -1721.45
rfemur -49.6332 -3.78018 10.0859
rtibia 34.1664
rfoot -11.0158 -19.5827
rtoes 20.2783
lfemur -14.6793 -6.1858 -26.8016
ltibia 21.2823
lfoot -10.4289 -17.0616
ltoes -15.5644
3435
root 8.86792 17.7365 2.86135 17.5362 -20.1442 10.5823
lowerback 16.7635 2.07865 0.821907
upperback 6.88913 3.02644 8.14696
thorax -2.42458 1.37026 7.6863
lowerneck -8.39309 -13.8483 -10.9679
upperneck 24.3501 -21.1382 13.8023
head 12.1225 -9.13438 3.77061
rclavicle 6.99722e-014 2.8625e-014
rhumerus 1.29917 20.4706 -85.8807
rradius 43.7647
rwrist -46.0266
rhand -36.1833 -24.2997
rfingers 7.12502
rthumb -9.28665 -54.0751
lclavicle 6.99722e-014 2.8625e-014
lhumerus -12.975 -39.1099 96.3324
lradius 53.8554
lwrist 16.7302
lhand -11.2953 48.8716
lfingers 7.12502
lthumb 14.736 -1721.67
rfemur -49.7092 -4.08972 10.3176
rtibia 34.2494
rfoot -11.1102 -19.323
rtoes 20.0575
lfemur -14.6091 -6.23174 -26.7115
ltibia 20.9915
lfoot -10.4033 -17.0657
ltoes -16.6657
